<svg id="svg" version="1.1" xmlns="http://www.w3.org/2000/svg" xmlns:xlink="http://www.w3.org/1999/xlink" width="400" height="400" viewBox="0, 0, 400,400"><g id="svgg"><path id="path0" d="M194.332 22.004 C 194.258 22.227,193.343 22.446,192.299 22.491 C 191.254 22.537,190.400 22.715,190.400 22.887 C 190.400 23.059,189.860 23.200,189.200 23.200 C 188.540 23.200,188.000 23.380,188.000 23.600 C 188.000 23.820,187.640 24.000,187.200 24.000 C 186.760 24.000,186.400 24.148,186.400 24.329 C 186.400 24.511,185.725 24.833,184.900 25.045 C 184.075 25.257,183.443 25.642,183.495 25.901 C 183.548 26.160,183.340 26.275,183.033 26.157 C 182.298 25.875,178.359 28.462,178.584 29.080 C 178.694 29.382,178.520 29.468,178.114 29.312 C 177.716 29.159,177.569 29.226,177.730 29.487 C 177.873 29.719,177.633 30.003,177.196 30.117 C 176.721 30.241,176.400 30.663,176.400 31.163 C 176.400 31.623,176.226 32.000,176.013 32.000 C 175.799 32.000,175.734 31.685,175.866 31.300 C 176.062 30.733,175.990 30.751,175.489 31.396 C 175.149 31.833,174.956 32.329,175.061 32.498 C 175.165 32.667,174.969 32.914,174.625 33.046 C 174.281 33.178,174.000 33.547,174.000 33.866 C 174.000 34.186,173.865 34.365,173.700 34.266 C 173.408 34.089,172.375 34.978,172.392 35.392 C 172.436 36.483,172.297 36.779,171.643 36.986 C 171.227 37.118,170.788 37.536,170.668 37.913 C 170.548 38.291,170.190 39.050,169.874 39.600 C 169.002 41.115,167.881 43.705,167.724 44.569 C 167.647 44.991,167.403 45.555,167.182 45.822 C 166.961 46.088,166.822 46.849,166.872 47.513 C 166.923 48.177,166.744 48.985,166.475 49.309 C 166.207 49.633,166.015 50.416,166.050 51.049 C 166.085 51.682,166.088 77.805,166.056 109.100 L 166.000 166.000 109.176 166.000 C 66.326 166.000,52.423 166.114,52.638 166.462 C 52.834 166.778,52.747 166.813,52.362 166.572 C 51.436 165.992,49.895 165.922,49.572 166.445 C 49.403 166.719,48.561 166.906,47.656 166.871 C 46.769 166.836,45.932 166.986,45.798 167.204 C 45.663 167.422,45.197 167.600,44.762 167.600 C 44.328 167.600,43.528 167.891,42.986 168.246 C 42.444 168.601,42.000 168.784,42.000 168.653 C 42.000 168.521,41.325 168.799,40.500 169.270 C 39.675 169.740,38.550 170.366,38.000 170.660 C 37.450 170.954,37.148 171.196,37.329 171.198 C 37.509 171.199,37.387 171.470,37.057 171.800 C 36.727 172.130,36.157 172.400,35.789 172.400 C 35.422 172.400,34.617 172.940,34.000 173.600 C 33.383 174.260,32.726 174.806,32.540 174.813 C 32.353 174.820,31.840 175.114,31.400 175.467 C 30.750 175.987,30.731 176.062,31.300 175.866 C 32.395 175.489,32.120 175.974,30.997 176.401 C 30.445 176.611,30.040 177.011,30.097 177.291 C 30.154 177.571,29.953 177.748,29.651 177.684 C 29.308 177.611,29.188 177.792,29.331 178.163 C 29.469 178.524,29.370 178.690,29.080 178.584 C 28.462 178.359,25.875 182.298,26.157 183.033 C 26.275 183.340,26.153 183.548,25.886 183.495 C 25.614 183.442,25.414 183.796,25.432 184.300 C 25.449 184.795,25.314 185.200,25.132 185.200 C 24.949 185.200,24.800 185.470,24.800 185.800 C 24.800 186.130,24.620 186.400,24.400 186.400 C 24.180 186.400,24.000 186.760,24.000 187.200 C 24.000 187.640,23.820 188.000,23.600 188.000 C 23.380 188.000,23.200 188.540,23.200 189.200 C 23.200 189.860,23.059 190.400,22.887 190.400 C 22.715 190.400,22.537 191.254,22.491 192.299 C 22.446 193.343,22.227 194.258,22.004 194.332 C 21.431 194.523,21.502 196.934,22.100 197.579 C 22.495 198.004,22.495 198.058,22.102 197.837 C 21.515 197.505,21.425 205.245,22.012 205.608 C 22.202 205.725,22.400 206.626,22.453 207.610 C 22.505 208.595,22.717 209.515,22.924 209.655 C 23.131 209.794,23.300 210.379,23.300 210.955 C 23.300 211.530,23.457 212.000,23.650 212.000 C 23.843 212.000,24.000 212.360,24.000 212.800 C 24.000 213.240,24.180 213.600,24.400 213.600 C 24.620 213.600,24.800 213.888,24.800 214.240 C 24.800 215.582,27.424 220.177,29.385 222.269 C 29.833 222.747,30.624 223.602,31.142 224.169 C 31.660 224.736,32.335 225.200,32.642 225.200 C 32.949 225.200,33.200 225.380,33.200 225.600 C 33.200 225.820,33.500 226.000,33.867 226.000 C 34.233 226.000,34.424 226.109,34.291 226.242 C 33.911 226.622,35.881 228.400,36.682 228.401 C 37.077 228.401,38.030 228.941,38.800 229.600 C 39.570 230.259,40.504 230.799,40.876 230.799 C 41.248 230.800,41.666 230.983,41.804 231.207 C 41.942 231.430,42.202 231.522,42.382 231.411 C 42.562 231.300,42.932 231.477,43.204 231.804 C 43.476 232.132,44.096 232.400,44.582 232.400 C 45.069 232.400,45.596 232.530,45.755 232.688 C 45.913 232.846,46.798 233.026,47.721 233.088 C 48.645 233.150,49.460 233.379,49.532 233.597 C 49.618 233.853,49.918 233.858,50.380 233.611 C 50.773 233.400,51.190 233.324,51.307 233.440 C 51.424 233.557,77.277 233.635,108.760 233.614 L 166.000 233.575 166.055 290.687 C 166.086 322.099,166.081 348.371,166.045 349.070 C 166.009 349.768,166.164 350.454,166.389 350.594 C 166.615 350.733,166.800 351.546,166.800 352.400 C 166.800 353.254,166.980 354.064,167.200 354.200 C 167.420 354.336,167.606 354.842,167.613 355.324 C 167.620 355.806,167.884 356.542,168.200 356.959 C 168.516 357.376,168.680 357.871,168.564 358.059 C 168.448 358.247,168.543 358.400,168.776 358.400 C 169.009 358.400,169.200 358.726,169.200 359.125 C 169.200 359.523,169.560 360.236,170.000 360.708 C 170.440 361.180,170.800 361.844,170.800 362.183 C 170.800 362.522,170.980 362.800,171.200 362.800 C 171.420 362.800,171.600 363.078,171.600 363.418 C 171.600 364.146,173.405 366.062,173.758 365.709 C 173.891 365.576,174.000 365.767,174.000 366.133 C 174.000 366.500,174.136 366.800,174.302 366.800 C 174.469 366.800,174.844 367.340,175.136 368.000 C 175.428 368.660,175.922 369.200,176.234 369.200 C 176.545 369.200,176.800 369.391,176.800 369.624 C 176.800 369.857,176.980 369.936,177.200 369.800 C 177.420 369.664,177.600 369.756,177.600 370.005 C 177.600 370.687,178.540 371.487,179.116 371.295 C 179.396 371.201,179.574 371.367,179.513 371.662 C 179.438 372.019,179.738 372.166,180.400 372.099 C 181.097 372.028,181.235 372.104,180.857 372.349 C 180.180 372.787,180.970 373.390,181.662 372.962 C 181.957 372.779,182.015 372.853,181.822 373.165 C 181.629 373.476,181.825 373.734,182.360 373.874 C 182.822 373.994,183.200 374.236,183.200 374.411 C 183.200 374.586,183.920 374.851,184.800 375.000 C 185.680 375.149,186.400 375.445,186.400 375.659 C 186.400 375.872,186.565 375.945,186.768 375.820 C 186.970 375.695,187.436 375.893,187.804 376.261 C 188.369 376.826,188.528 376.842,188.830 376.365 C 189.027 376.054,189.192 375.980,189.197 376.200 C 189.212 376.836,191.221 377.600,192.880 377.600 C 193.716 377.600,194.400 377.767,194.400 377.971 C 194.400 378.489,205.493 378.521,205.665 378.004 C 205.739 377.782,206.555 377.550,207.479 377.488 C 208.402 377.426,209.287 377.246,209.445 377.088 C 209.604 376.930,210.243 376.800,210.867 376.800 C 211.490 376.800,212.000 376.620,212.000 376.400 C 212.000 376.180,212.360 376.000,212.800 376.000 C 213.240 376.000,213.600 375.836,213.600 375.635 C 213.600 375.434,214.320 375.149,215.200 375.000 C 216.080 374.851,216.800 374.566,216.800 374.365 C 216.800 374.164,216.990 374.000,217.221 374.000 C 217.971 374.000,220.405 372.139,220.098 371.800 C 219.934 371.620,220.007 371.590,220.259 371.734 C 220.673 371.971,221.251 371.543,224.299 368.744 C 224.793 368.290,225.096 367.756,224.973 367.557 C 224.850 367.357,225.031 367.086,225.375 366.954 C 225.719 366.822,226.000 366.434,226.000 366.091 C 226.000 365.747,226.109 365.576,226.242 365.709 C 226.654 366.121,228.400 364.086,228.400 363.195 C 228.400 362.732,228.580 362.464,228.800 362.600 C 229.020 362.736,229.200 362.499,229.200 362.073 C 229.200 361.647,229.473 361.071,229.807 360.794 C 230.141 360.517,230.697 359.640,231.041 358.845 C 231.385 358.050,231.832 357.087,232.034 356.705 C 232.235 356.323,232.400 355.659,232.400 355.229 C 232.400 354.799,232.559 354.349,232.753 354.229 C 232.947 354.109,233.116 353.261,233.129 352.344 C 233.141 351.427,233.387 350.528,233.676 350.345 C 234.089 350.082,234.073 350.010,233.600 350.000 C 233.067 349.989,233.067 349.945,233.600 349.600 C 233.979 349.355,234.021 349.210,233.713 349.206 C 233.444 349.203,233.321 348.951,233.438 348.646 C 233.555 348.342,233.684 322.377,233.725 290.946 L 233.800 233.800 292.000 233.800 C 324.010 233.800,350.307 233.654,350.439 233.476 C 350.570 233.297,351.427 233.141,352.344 233.129 C 353.261 233.116,354.109 232.947,354.229 232.753 C 354.349 232.559,354.876 232.400,355.400 232.400 C 355.924 232.400,356.464 232.220,356.600 232.000 C 356.736 231.780,357.197 231.600,357.624 231.600 C 358.051 231.600,358.400 231.420,358.400 231.200 C 358.400 230.980,358.732 230.800,359.138 230.800 C 359.544 230.800,360.202 230.440,360.600 230.000 C 360.998 229.560,361.667 229.200,362.086 229.200 C 362.504 229.200,362.736 229.020,362.600 228.800 C 362.464 228.580,362.738 228.400,363.208 228.400 C 363.690 228.400,364.778 227.659,365.702 226.700 C 366.603 225.765,367.475 225.040,367.639 225.089 C 367.802 225.139,368.356 224.720,368.868 224.158 C 369.381 223.597,370.215 222.700,370.722 222.165 C 371.228 221.631,371.540 221.027,371.415 220.824 C 371.290 220.621,371.398 220.325,371.655 220.166 C 371.967 219.973,372.024 220.064,371.827 220.438 C 371.664 220.747,371.904 220.550,372.361 220.000 C 372.819 219.450,373.418 218.505,373.694 217.900 C 373.970 217.295,374.316 216.800,374.462 216.800 C 374.609 216.800,374.851 216.080,375.000 215.200 C 375.149 214.320,375.434 213.600,375.635 213.600 C 375.836 213.600,376.000 213.240,376.000 212.800 C 376.000 212.360,376.180 212.000,376.400 212.000 C 376.620 212.000,376.800 211.471,376.800 210.824 C 376.800 210.177,376.959 209.549,377.153 209.429 C 377.347 209.309,377.516 208.447,377.529 207.514 C 377.542 206.580,377.743 205.752,377.976 205.675 C 378.538 205.487,378.561 194.400,378.000 194.400 C 377.780 194.400,377.600 193.849,377.600 193.176 C 377.600 192.304,377.456 192.039,377.100 192.253 C 376.706 192.490,376.707 192.422,377.104 191.931 C 377.513 191.426,377.497 191.094,377.025 190.183 C 376.704 189.564,376.533 188.908,376.646 188.726 C 376.759 188.543,376.568 188.111,376.222 187.765 C 375.876 187.419,375.685 186.985,375.799 186.802 C 375.912 186.618,375.815 186.405,375.582 186.327 C 375.350 186.250,375.061 185.560,374.940 184.793 C 374.820 184.027,374.604 183.310,374.460 183.200 C 374.316 183.090,373.945 182.508,373.635 181.907 C 373.326 181.305,372.741 180.458,372.336 180.023 C 371.931 179.589,371.600 179.128,371.600 178.999 C 371.600 178.600,369.449 176.594,369.130 176.695 C 368.964 176.748,368.919 176.556,369.028 176.270 C 369.140 175.978,368.739 175.498,368.114 175.175 C 367.501 174.859,366.550 174.135,366.000 173.566 C 365.450 172.997,364.775 172.607,364.500 172.699 C 364.182 172.806,364.088 172.636,364.243 172.233 C 364.417 171.779,364.247 171.600,363.643 171.600 C 363.179 171.600,362.800 171.420,362.800 171.200 C 362.800 170.980,362.480 170.800,362.088 170.800 C 361.697 170.800,361.117 170.440,360.800 170.000 C 360.483 169.560,359.991 169.200,359.706 169.200 C 359.422 169.200,358.832 169.020,358.395 168.800 C 357.958 168.580,357.242 168.220,356.805 168.000 C 356.368 167.780,355.659 167.600,355.229 167.600 C 354.799 167.600,354.336 167.420,354.200 167.200 C 354.064 166.980,353.053 166.800,351.953 166.800 C 350.668 166.800,350.045 166.651,350.210 166.383 C 350.372 166.122,349.972 165.994,349.134 166.039 C 348.400 166.079,322.097 166.086,290.682 166.055 L 233.564 166.000 233.614 107.900 C 233.641 75.945,233.538 49.480,233.385 49.088 C 233.231 48.696,233.079 47.854,233.047 47.216 C 233.015 46.577,232.856 45.923,232.694 45.761 C 232.532 45.599,232.400 45.069,232.400 44.582 C 232.400 44.096,232.141 43.483,231.824 43.220 C 231.507 42.957,231.339 42.503,231.451 42.211 C 231.563 41.920,231.462 41.562,231.227 41.417 C 230.992 41.272,230.800 40.886,230.800 40.560 C 230.800 40.233,230.440 39.580,230.000 39.108 C 229.560 38.636,229.200 38.013,229.200 37.725 C 229.200 37.436,229.020 37.200,228.800 37.200 C 228.580 37.200,228.400 36.922,228.400 36.582 C 228.400 35.707,226.516 33.883,226.261 34.511 C 226.152 34.780,226.049 34.595,226.032 34.100 C 226.014 33.605,225.820 33.200,225.600 33.200 C 225.380 33.200,225.200 32.941,225.200 32.624 C 225.200 32.307,225.022 31.937,224.805 31.803 C 224.573 31.660,224.506 31.857,224.642 32.279 C 224.825 32.844,224.789 32.878,224.475 32.436 C 224.254 32.126,224.167 31.631,224.280 31.336 C 224.393 31.041,224.313 30.800,224.102 30.800 C 223.891 30.800,223.190 30.295,222.544 29.678 C 220.226 27.462,215.693 24.800,214.240 24.800 C 213.888 24.800,213.600 24.620,213.600 24.400 C 213.600 24.180,213.240 24.000,212.800 24.000 C 212.360 24.000,212.000 23.820,212.000 23.600 C 212.000 23.380,211.460 23.200,210.800 23.200 C 210.140 23.200,209.600 23.049,209.600 22.865 C 209.600 22.681,208.754 22.498,207.720 22.459 C 206.686 22.419,205.739 22.225,205.617 22.027 C 205.248 21.430,197.499 21.505,197.837 22.102 C 198.058 22.495,198.004 22.495,197.579 22.100 C 196.934 21.502,194.523 21.431,194.332 22.004 " stroke="none" fill="#34343c" fill-rule="evenodd"></path><path id="path1" d="M172.080 35.680 C 171.516 36.244,171.453 36.800,171.953 36.800 C 172.148 36.800,172.401 36.440,172.516 36.000 C 172.760 35.066,172.722 35.038,172.080 35.680 M233.794 110.800 C 233.794 141.270,233.842 153.735,233.900 138.500 C 233.958 123.265,233.958 98.335,233.900 83.100 C 233.842 67.865,233.794 80.330,233.794 110.800 M50.364 233.631 C 49.953 233.891,50.099 233.989,50.900 233.994 C 52.094 234.001,52.310 233.804,51.464 233.480 C 51.169 233.367,50.674 233.435,50.364 233.631 M83.100 233.900 C 98.335 233.958,123.265 233.958,138.500 233.900 C 153.735 233.842,141.270 233.794,110.800 233.794 C 80.330 233.794,67.865 233.842,83.100 233.900 M233.785 234.100 C 233.680 234.375,233.641 259.350,233.699 289.600 L 233.803 344.600 233.901 289.301 L 234.000 234.003 289.300 233.900 L 344.600 233.797 289.287 233.699 C 245.333 233.620,233.936 233.703,233.785 234.100 " stroke="none" fill="#343c3c" fill-rule="evenodd"></path><path id="path2" d="" stroke="none" fill="#38343c" fill-rule="evenodd"></path><path id="path3" d="" stroke="none" fill="#38343c" fill-rule="evenodd"></path><path id="path4" d="" stroke="none" fill="#38343c" fill-rule="evenodd"></path><path id="path5" d="" stroke="none" fill="#38343c" fill-rule="evenodd"></path><path id="path6" d="" stroke="none" fill="#38343c" fill-rule="evenodd"></path><path id="path7" d="" stroke="none" fill="#38343c" fill-rule="evenodd"></path><path id="path8" d="" stroke="none" fill="#38343c" fill-rule="evenodd"></path></g></svg>